PathFileType	4	(X/Y/Z)	C:\Users\dbl\Desktop\20210112\20210112\bx_n_5_1801.trc
DataRate	CameraRate	NumFrames	NumMarkers	Units	OrigDataRate	OrigDataStartFrame	OrigNumFrames
50.00	50.00	       4	43	mm	50.00	231	       460
Frame#	Time	Top.Head			R.Acromium			L.Acromium			Sternum			R.ASIS			L.ASIS			V.Sacral			R.Thigh.Upper			R.Thigh.Front			R.Thigh.Rear			R.Knee.Lat			R.Knee.Med			R.Shank.Upper			R.Shank.Front			R.Shank.Rear			R.Ankle.Lat			R.Midfoot.Lat			R.Toe.Lat			R.Toe.Tip			R.Toe.Med			R.Ankle.Med			R.Midfoot.Sup			R.Heel			L.Thigh.Upper			L.Thigh.Front			L.Thigh.Rear			L.Knee.Lat			L.Knee.Med			L.Shank.Upper			L.Shank.Front			L.Shank.Rear			L.Ankle.Lat			L.Midfoot.Lat			L.Toe.Lat			L.Toe.Tip			L.Toe.Med			L.Ankle.Med			L.Midfoot.Sup			L.Heel			origin1 front left			origin2 front right			origin 3 back right			origin 4 back leftt			
		X1	Y1	Z1	X2	Y2	Z2	X3	Y3	Z3	X4	Y4	Z4	X5	Y5	Z5	X6	Y6	Z6	X7	Y7	Z7	X8	Y8	Z8	X9	Y9	Z9	X10	Y10	Z10	X11	Y11	Z11	X12	Y12	Z12	X13	Y13	Z13	X14	Y14	Z14	X15	Y15	Z15	X16	Y16	Z16	X17	Y17	Z17	X18	Y18	Z18	X19	Y19	Z19	X20	Y20	Z20	X21	Y21	Z21	X22	Y22	Z22	X23	Y23	Z23	X24	Y24	Z24	X25	Y25	Z25	X26	Y26	Z26	X27	Y27	Z27	X28	Y28	Z28	X29	Y29	Z29	X30	Y30	Z30	X31	Y31	Z31	X32	Y32	Z32	X33	Y33	Z33	X34	Y34	Z34	X35	Y35	Z35	X36	Y36	Z36	X37	Y37	Z37	X38	Y38	Z38	X39	Y39	Z39	X40	Y40	Z40	X41	Y41	Z41	X42	Y42	Z42	X43	Y43	Z43	

231	4.600	-515.32153	91.96523	1786.95435	-642.41089	-82.80519	1501.95129	-639.24396	270.36859	1504.99170	-607.46454	90.39935	1295.63782	-709.84998	-18.32124	1041.70947	-722.29034	229.97101	1050.83289	-914.14801	81.36339	1053.31177	-758.81793	-89.23505	866.10236	-659.53918	-30.05122	824.07684	-737.18384	-78.29921	750.75427	-701.22791	-51.57630	612.73737	-662.24261	53.83641	577.87665	-699.10651	-50.09425	565.73004	-644.29309	-8.69735	516.84656	-747.79895	-53.85764	488.16034	-761.09583	-23.02427	206.09293	-651.44312	-72.10296	157.38156	-607.90863	-78.50121	155.84544	-552.39905	-29.83964	165.27197	-600.24475	20.85520	173.06854	-715.55286	62.26260	217.80701	-673.83594	48.69130	163.80147	-792.13574	38.62855	176.44760	-780.24316	282.76770	865.91510	-658.10431	226.56219	816.74756	-735.47943	276.38562	739.31659	-719.38159	257.33255	634.44171	-653.85071	158.89384	582.37622	-702.64154	256.20865	573.47540	-643.68933	220.12291	533.19556	-743.35382	262.86240	501.41025	-767.36938	229.41649	204.91844	-661.36993	300.67645	154.86555	-624.59332	308.64969	157.01617	-556.31244	256.53998	164.81216	-593.26752	222.46524	175.54268	-708.67255	157.57018	216.14326	-674.54694	175.57495	160.24234	-794.42169	178.24576	185.58832	-528.24567	304.11774	146.39299	-517.95245	-72.76828	143.28218	-875.90454	-78.71947	141.26376	-882.53448	296.18668	144.69533	
232	4.620	-504.82294	92.34586	1778.46802	-637.99048	-82.81076	1496.31360	-634.93170	270.28503	1499.37341	-606.69006	90.33188	1289.27942	-714.67487	-17.79045	1038.03418	-726.98120	229.96274	1047.96497	-918.37170	81.53121	1051.87122	-762.25079	-89.54526	864.38232	-662.02051	-30.73414	823.98151	-738.41229	-79.28899	749.42694	-699.68878	-52.57032	612.29260	-660.29266	52.64038	577.73126	-697.24951	-51.16486	565.31464	-642.56732	-9.77203	516.37408	-746.25720	-54.79725	487.88058	-760.86188	-23.02430	206.06711	-651.45123	-72.10964	157.34348	-607.89838	-78.53429	155.81032	-552.37000	-29.86131	165.24287	-600.20667	20.82751	173.07303	-715.39868	62.13964	217.79378	-673.75903	48.65945	163.84245	-792.11700	38.66772	176.52594	-783.38867	283.40793	864.15179	-660.11859	227.25417	816.81158	-736.09210	277.48581	738.27411	-718.12854	258.32733	633.75037	-652.26801	159.97321	582.28204	-700.83197	257.33603	573.13007	-642.02722	221.04593	532.78839	-741.78137	263.84738	501.10925	-767.20868	229.62270	204.85143	-661.36859	300.69034	154.85776	-624.61700	308.70132	156.98100	-556.30707	256.54880	164.79961	-593.27692	222.48663	175.52582	-708.46350	157.55473	216.16005	-674.51984	175.61499	160.23441	-794.38049	178.30989	185.65590	-528.23029	304.10815	146.37231	-517.95306	-72.77131	143.28702	-875.90424	-78.71448	141.26260	-882.53125	296.17300	144.68065	
233	4.640	-494.52277	92.65089	1769.55359	-633.62891	-82.81132	1490.34778	-630.74194	270.16873	1493.45374	-606.03259	90.24959	1282.68103	-719.47363	-17.34201	1034.18677	-731.63318	229.92812	1044.96082	-922.82990	81.86604	1050.15906	-765.76038	-89.82034	862.52301	-664.53247	-31.50111	823.79346	-739.72546	-80.25509	748.03149	-698.23199	-53.56135	611.82568	-658.33832	51.49463	577.60229	-695.42792	-52.20766	564.88385	-640.88623	-10.81452	515.88892	-744.79883	-55.70169	487.60074	-760.62451	-23.01908	206.03326	-651.46826	-72.12549	157.30960	-607.89105	-78.56412	155.76900	-552.35620	-29.87604	165.21362	-600.16565	20.79972	173.08015	-715.18903	62.09361	217.81075	-673.67493	48.62943	163.89020	-792.10022	38.72484	176.59915	-786.49640	284.07813	862.30890	-662.11786	227.88950	816.82397	-736.70343	278.50104	737.15808	-716.87378	259.23767	633.04272	-650.72754	160.91164	582.18512	-699.04456	258.33124	572.77618	-640.37585	221.84766	532.37604	-740.22278	264.73206	500.81677	-767.06091	229.80811	204.81201	-661.36560	300.69492	154.85570	-624.65009	308.73975	156.96045	-556.30621	256.55780	164.78650	-593.27338	222.49876	175.51157	-708.29913	157.53389	216.16548	-674.50256	175.66489	160.20401	-794.33368	178.38239	185.71472	-528.21564	304.10156	146.34572	-517.94757	-72.77544	143.29726	-875.89764	-78.71001	141.25702	-882.53015	296.15408	144.65947	
234	4.660	-484.51538	92.87529	1760.26563	-629.33716	-82.78082	1484.04651	-626.67297	270.01105	1487.24805	-605.51019	90.16258	1275.86304	-724.21832	-16.98339	1030.25769	-736.19513	229.87851	1041.81921	-927.52045	82.31656	1048.13110	-769.33826	-90.07310	860.53711	-667.07367	-32.35533	823.53406	-741.12183	-81.16924	746.56122	-696.86517	-54.54926	611.33118	-656.42804	50.39201	577.48663	-693.66034	-53.22825	564.43359	-639.27155	-11.82205	515.39667	-743.42932	-56.57416	487.32672	-760.40515	-23.02369	205.99789	-651.49377	-72.14998	157.27687	-607.89154	-78.59157	155.72562	-552.36005	-29.88737	165.18709	-600.13904	20.77125	173.08453	-714.94427	62.10061	217.85612	-673.59576	48.60256	163.93929	-792.09174	38.79083	176.66229	-789.56384	284.72726	860.36639	-664.10602	228.43138	816.77838	-737.30402	279.42407	735.96716	-715.59277	260.05246	632.31689	-649.19757	161.69466	582.08856	-697.25311	259.18240	572.40753	-638.71576	222.52325	531.95648	-738.65094	265.51276	500.53442	-766.93140	229.96033	204.79858	-661.36328	300.68762	154.86055	-624.68872	308.76120	156.96054	-556.31128	256.56348	164.77797	-593.25592	222.49858	175.50018	-708.17816	157.50909	216.15007	-674.49994	175.70474	160.15427	-794.28284	178.44946	185.76329	-528.20752	304.09818	146.32010	-517.93835	-72.77836	143.30411	-875.88751	-78.70695	141.24942	-882.53064	296.13583	144.63791	
